<svg xmlns="http://www.w3.org/2000/svg" xmlns:xlink="http://www.w3.org/1999/xlink" width="1080" viewBox="0 0 810 1559.999932" height="2080" preserveAspectRatio="xMidYMid meet"><path fill="#115cc5" d="M 396.253906 1388.988281 C 392.117188 958.207031 386.753906 528.039062 385.3125 97.375 C 385.632812 82.40625 409.238281 81.011719 411.222656 95.601562 C 415.746094 141.25 413.125 187.417969 414.210938 233.242188 C 413.585938 318.6875 416.160156 404.101562 416.183594 489.597656 C 417.789062 784.039062 423.53125 1078.46875 423.4375 1372.945312 L 426 1374.125 C 447.996094 1354.160156 463.011719 1326.871094 486.25 1308.488281 C 499.246094 1301.402344 513.585938 1318.910156 503.34375 1330.332031 C 494.484375 1340.789062 485.316406 1351.007812 476.433594 1361.449219 C 459.664062 1381.140625 442.957031 1400.871094 426.308594 1420.648438 C 413.488281 1436.960938 400.316406 1438.746094 386.449219 1422.738281 C 362.417969 1395.921875 337.742188 1369.222656 308.738281 1347.699219 C 297.597656 1341.96875 296.453125 1324.070312 309.269531 1319.769531 C 316.488281 1317.101562 322.265625 1319.570312 327.476562 1324.496094 C 349.589844 1345.21875 371.753906 1365.960938 396.253906 1388.988281 Z M 396.253906 1388.988281 " fill-opacity="1" fill-rule="nonzero"></path></svg>